# xmcd
#
# Track frame offsets:
#	187
#	16190
#	30577
#	44860
#	62302
#	77312
#	91445
#	103462
#	119812
#	135040
#
# Disc length: 1980 seconds
#
# Revision: 1
# Processed by: cddbd v1.5.2PL0 Copyright (c) Steve Scherf et al.
# Submitted via: audiograbber 1.83.01
#
DISCID=7a07ba0a
DTITLE=Various Artist - JV0063
DYEAR=1993
DGENRE=Karaoke
TTITLE0=Tritt, Travis - Can I Trust You With My Heart
TTITLE1=Travis, Randy - If I Didn't Have You
TTITLE2=Campbell, Stacy Dean - Poor Man's Roses, A
TTITLE3=Restless Heart - When She Cries
TTITLE4=Stuart, Marty - Now That's Country
TTITLE5=Parnell, Lee Roy - Love Without Mercy
TTITLE6=Jackson, Alan - Love's Got A Hold On You
TTITLE7=Morgan, Lorrie - Watch Me
TTITLE8=Carpenter, Mary Chapin and Joe Diffie - Not Too Much To Ask
TTITLE9=Stone, Doug - Made For Lovin' You
EXTD=
EXTT0=
EXTT1=
EXTT2=
EXTT3=
EXTT4=
EXTT5=
EXTT6=
EXTT7=
EXTT8=
EXTT9=
PLAYORDER=
